<svg width="56" height="56" viewBox="0 0 56 56" fill="none" xmlns="http://www.w3.org/2000/svg">
<path fill-rule="evenodd" clip-rule="evenodd" d="M23.1057 24.0854C26.7626 22.4431 29.3093 18.7695 29.3093 14.5011C29.3093 8.70149 24.6078 4 18.8082 4C13.0087 4 8.30717 8.70149 8.30717 14.5011C8.30717 18.8951 11.006 22.6589 14.8365 24.225C8.52247 26.1232 3.91943 32.0178 3.91943 38.9955C3.91943 47.5072 3.91943 52 19.2186 52C34.5178 52 19.2186 47.5072 19.2186 38.9955C19.2186 31.8367 29.6727 25.818 23.1057 24.0854Z" fill="#E5E7EA"/>
<path d="M41 28C47.6274 28 53 33.3726 53 40C53 46.6274 47.6274 52 41 52C34.3726 52 29 46.6274 29 40C29 33.3726 34.3726 28 41 28ZM41 33C39.8954 33 39 33.8954 39 35V38H36C34.8954 38 34 38.8954 34 40C34 41.1046 34.8954 42 36 42H39V45C39 46.1046 39.8954 47 41 47C42.1046 47 43 46.1046 43 45V42H46C47.1046 42 48 41.1046 48 40C48 38.8954 47.1046 38 46 38H43V35C43 33.8954 42.1046 33 41 33Z" fill="#F8FAFF"/>
<path d="M20.8887 4C26.6882 4 31.3896 8.70144 31.3896 14.501C31.3896 18.7693 28.8432 22.4427 25.1865 24.085C27.9338 24.8098 30.3771 26.2875 32.293 28.2822C28.1446 30.5429 25.3301 34.9431 25.3301 40C25.3301 44.5132 27.5727 48.5023 31.0039 50.915C28.7749 51.6336 25.658 52 21.2988 52C6 51.9999 6 47.5068 6 38.9951C6.00015 32.0176 10.6031 26.1228 16.917 24.2246C13.0866 22.6584 10.3877 18.895 10.3877 14.501C10.3877 8.70148 15.0892 4.00007 20.8887 4Z" fill="#F8FAFF"/>
</svg>