<svg width="16" height="16" viewBox="0 0 16 16" fill="none" xmlns="http://www.w3.org/2000/svg">
<path d="M1.6665 7.71431H2.37021M7.99984 1.38098V2.08469M13.6295 7.71431H14.3332M3.49613 3.21061L3.98873 3.7032M12.5035 3.21061L12.0109 3.7032M6.38132 11.2328H9.61836M5.88873 10.5291C5.29795 10.086 4.86155 9.46831 4.64136 8.76342C4.42117 8.05854 4.42835 7.30224 4.66188 6.60166C4.8954 5.90108 5.34344 5.29174 5.94252 4.85994C6.54161 4.42815 7.26136 4.1958 7.99984 4.1958C8.73831 4.1958 9.45807 4.42815 10.0572 4.85994C10.6562 5.29174 11.1043 5.90108 11.3378 6.60166C11.5713 7.30224 11.5785 8.05854 11.3583 8.76342C11.1381 9.46831 10.7017 10.086 10.1109 10.5291C9.8362 10.8011 9.62933 11.1339 9.50708 11.5007C9.38483 11.8674 9.35063 12.2578 9.40724 12.6402C9.40724 13.0135 9.25896 13.3715 8.99502 13.6354C8.73108 13.8994 8.3731 14.0476 7.99984 14.0476C7.62657 14.0476 7.26859 13.8994 7.00465 13.6354C6.74071 13.3715 6.59243 13.0135 6.59243 12.6402C6.64905 12.2578 6.61485 11.8674 6.49259 11.5007C6.37034 11.1339 6.16347 10.8011 5.88873 10.5291Z" stroke="currentColor" stroke-width="1.40741" stroke-linecap="round" stroke-linejoin="round"/>
</svg>
