<svg width="20" height="20" viewBox="0 0 20 20" fill="none" xmlns="http://www.w3.org/2000/svg">
<path fill-rule="evenodd" clip-rule="evenodd" d="M2.5 4.99984C2.5 4.5396 2.8731 4.1665 3.33333 4.1665H6.66667C7.1269 4.1665 7.5 4.5396 7.5 4.99984C7.5 5.46007 7.1269 5.83317 6.66667 5.83317H3.33333C2.8731 5.83317 2.5 5.46007 2.5 4.99984ZM2.5 9.99984C2.5 9.5396 2.8731 9.1665 3.33333 9.1665H6.66667C7.1269 9.1665 7.5 9.5396 7.5 9.99984C7.5 10.4601 7.1269 10.8332 6.66667 10.8332H3.33333C2.8731 10.8332 2.5 10.4601 2.5 9.99984ZM2.5 14.9998C2.5 14.5396 2.8731 14.1665 3.33333 14.1665H16.6667C17.1269 14.1665 17.5 14.5396 17.5 14.9998C17.5 15.4601 17.1269 15.8332 16.6667 15.8332H3.33333C2.8731 15.8332 2.5 15.4601 2.5 14.9998Z" fill="currentColor"/>
<path fill-rule="evenodd" clip-rule="evenodd" d="M10.5 4.99984C10.5 4.5396 10.8731 4.1665 11.3333 4.1665H15.8333C16.2936 4.1665 16.6667 4.5396 16.6667 4.99984V9.49984C16.6667 9.96007 16.2936 10.3332 15.8333 10.3332C15.3731 10.3332 15 9.96007 15 9.49984V7.01168L11.4226 10.5891C11.0972 10.9145 10.5695 10.9145 10.2441 10.5891C9.91864 10.2637 9.91864 9.73602 10.2441 9.41058L13.8215 5.83317H11.3333C10.8731 5.83317 10.5 5.46007 10.5 4.99984Z" fill="currentColor"/>
</svg>
