<svg width="20" height="20" viewBox="0 0 20 20" fill="none" xmlns="http://www.w3.org/2000/svg">
<path d="M1.6665 5.23801C1.6665 4.73284 1.86161 4.24836 2.2089 3.89114C2.55619 3.53393 3.02721 3.33325 3.51836 3.33325H16.4813C16.9725 3.33325 17.4435 3.53393 17.7908 3.89114C18.1381 4.24836 18.3332 4.73284 18.3332 5.23801V14.7618C18.3332 15.267 18.1381 15.7515 17.7908 16.1087C17.4435 16.4659 16.9725 16.6666 16.4813 16.6666H3.51836C3.02721 16.6666 2.55619 16.4659 2.2089 16.1087C1.86161 15.7515 1.6665 15.267 1.6665 14.7618V5.23801Z" stroke="currentColor" stroke-width="1.66667" stroke-linecap="round" stroke-linejoin="round"/>
<path d="M5.8335 10V7.5H8.3335M14.1668 10V12.5H11.6668" stroke="currentColor" stroke-width="1.66667" stroke-linecap="round" stroke-linejoin="round"/>
</svg>
