<svg width="21" height="20" viewBox="0 0 21 20" fill="none" xmlns="http://www.w3.org/2000/svg">
<path d="M18.485 9.16912L13.741 4.08495C13.5944 3.9259 13.4025 3.81618 13.1914 3.77079C12.9836 3.72758 12.7675 3.75211 12.5745 3.84079C12.376 3.93277 12.2095 4.08223 12.0963 4.26995C11.9801 4.46162 11.917 4.68662 11.917 4.91579V7.47412C9.77498 7.65496 7.72596 8.49496 6.00737 9.89662C4.28879 11.2983 2.97204 13.2033 2.21154 15.3883C2.19667 15.4341 2.19523 15.4833 2.20739 15.53C2.2189 15.5761 2.24408 15.6177 2.27962 15.6491C2.31331 15.6792 2.35612 15.6971 2.40115 15.6998C2.44618 15.7025 2.49081 15.69 2.52786 15.6641C5.36477 13.7808 8.59604 12.7116 11.917 12.5583V15.0841C11.917 15.3141 11.9792 15.5383 12.0963 15.73C12.2134 15.9216 12.3803 16.0708 12.5745 16.1591C12.7696 16.2483 12.9847 16.2725 13.1914 16.2291C13.3989 16.1858 13.5899 16.0766 13.741 15.915L18.485 10.8316C18.5862 10.7225 18.666 10.5933 18.7207 10.45C18.8316 10.1603 18.8316 9.83964 18.7207 9.54996C18.6671 9.40904 18.5871 9.27976 18.485 9.16912Z" stroke="currentColor" stroke-width="1.66667"/>
</svg>
