<svg width="56" height="56" viewBox="0 0 56 56" fill="none" xmlns="http://www.w3.org/2000/svg">
<path d="M42.5735 6.61224C48.3244 6.17713 51.8546 10.8727 51.8547 16.1279C51.8546 20.3166 49.2131 23.8706 45.5461 25.1415C50.6011 26.8239 54.259 31.7223 54.259 37.5029C54.259 43.7994 54.3406 48.4512 45.8499 49.4921C46.5973 48.051 46.9785 46.5247 47.1838 45.0536C47.4554 43.108 47.4555 40.9721 47.4553 38.9628V38.8212C47.4553 32.3206 44.1772 26.5821 39.1819 23.2001C41.114 20.8099 42.2727 17.766 42.2727 14.4492C42.2727 11.6919 41.4712 9.12203 40.0891 6.95892C40.8799 6.73416 41.7129 6.61226 42.5735 6.61224Z" fill="#E5E7EA"/>
<path d="M44.3141 6.61227C49.4398 6.61227 53.5953 10.8725 53.5953 16.1279C53.5953 20.3169 50.9539 23.8706 47.2867 25.1416C52.3418 26.8239 55.9995 31.7213 55.9996 37.5019C55.9996 43.7203 55.9994 48.0281 47.8024 49.0634C48.4122 47.7504 48.7403 46.3796 48.9254 45.0537C49.197 43.1081 49.197 40.9721 49.1969 38.9629V38.8213C49.1969 32.3205 45.9189 26.5811 40.9235 23.1992C42.8554 20.8091 44.0142 17.7658 44.0143 14.4492C44.0143 11.6921 43.2135 9.12196 41.8317 6.95895C42.622 6.73446 43.4541 6.61232 44.3141 6.61227Z" fill="#F8FAFF"/>
<path d="M11.6855 6.61218C6.55985 6.61218 2.4043 10.8725 2.4043 16.1278C2.40433 20.3169 5.04558 23.8706 8.71289 25.1415C3.65785 26.8238 9.91821e-05 31.7212 0 37.5018C0 44.1211 0.000332832 48.5767 9.88672 49.2235C9.87951 49.2148 9.87144 49.2068 9.86426 49.1981L9.31055 48.5126C8.0154 46.9737 7.34111 46.9652 7.07422 45.0536C6.80262 43.108 6.80258 40.972 6.80273 38.9628V38.8212C6.80273 32.3204 10.0807 26.581 15.0762 23.1991C13.1442 20.809 11.9854 17.7657 11.9854 14.4491C11.9854 11.692 12.7861 9.12187 14.168 6.95886C13.3776 6.73436 12.5456 6.61223 11.6855 6.61218Z" fill="#E5E7EA"/>
<path d="M13.4261 6.61224C8.30065 6.61248 4.1449 10.8727 4.1449 16.1279C4.14493 20.3167 6.78643 23.8705 10.4535 25.1415C5.39861 26.8239 1.7407 31.7214 1.7406 37.5019C1.7406 43.7204 1.74132 48.0282 9.93884 49.0634C9.32899 47.7504 9.0009 46.3796 8.8158 45.0536C8.54419 43.1081 8.54416 40.9721 8.54431 38.9628V38.8212C8.54431 32.3205 11.8223 26.5811 16.8177 23.1992C14.8858 20.809 13.727 17.7658 13.7269 14.4492C13.7269 11.6921 14.5277 9.12193 15.9095 6.95892C15.1191 6.73436 14.2864 6.61226 13.4261 6.61224Z" fill="#F8FAFF"/>
<path fill-rule="evenodd" clip-rule="evenodd" d="M31.28 23.985C34.9186 22.351 37.4526 18.6957 37.4526 14.4486C37.4526 8.678 32.7746 4 27.004 4C21.2334 4 16.5554 8.678 16.5554 14.4486C16.5554 18.8207 19.2407 22.5656 23.0521 24.124C16.7696 26.0127 12.1896 31.8778 12.1896 38.8206C12.1896 47.2899 12.1896 51.7602 27.4123 51.7602C42.635 51.7602 42.635 47.2899 42.635 38.8206C42.635 31.6976 37.8142 25.709 31.28 23.985Z" fill="#E5E7EA"/>
<path fill-rule="evenodd" clip-rule="evenodd" d="M33.0215 23.985C36.6601 22.351 39.1942 18.6957 39.1942 14.4486C39.1942 8.678 34.5162 4 28.7456 4C22.975 4 18.297 8.678 18.297 14.4486C18.297 18.8207 20.9823 22.5656 24.7937 24.124C18.5112 26.0127 13.9312 31.8778 13.9312 38.8206C13.9312 47.2899 13.9312 51.7602 29.1539 51.7602C44.3766 51.7602 44.3766 47.2899 44.3766 38.8206C44.3766 31.6976 39.5558 25.709 33.0215 23.985Z" fill="#F8FAFF"/>
</svg>