<svg width="44" height="44" viewBox="0 0 44 44" fill="none" xmlns="http://www.w3.org/2000/svg">
<path d="M21.9999 14.5C22.2123 14.5002 22.4166 14.5816 22.5711 14.7274C22.7255 14.8732 22.8184 15.0725 22.8309 15.2845C22.8433 15.4965 22.7744 15.7053 22.638 15.8682C22.5017 16.0311 22.3083 16.1357 22.0974 16.1608L21.9999 16.1667L17.8333 16.1667C17.6291 16.1667 17.4321 16.2416 17.2796 16.3773C17.1271 16.5129 17.0296 16.6998 17.0058 16.9025L16.9999 17L16.9999 27C16.9999 27.2041 17.0749 27.4011 17.2105 27.5536C17.3461 27.7062 17.533 27.8036 17.7358 27.8275L17.8333 27.8333L21.5833 27.8333C21.7957 27.8336 21.9999 27.9149 22.1544 28.0607C22.3088 28.2065 22.4018 28.4058 22.4142 28.6178C22.4267 28.8299 22.3577 29.0386 22.2214 29.2015C22.085 29.3644 21.8917 29.4691 21.6808 29.4942L21.5833 29.5L17.8333 29.5C17.1956 29.5 16.582 29.2564 16.118 28.8189C15.6541 28.3815 15.3748 27.7832 15.3374 27.1467L15.3333 27L15.3333 17C15.3332 16.3623 15.5769 15.7487 16.0143 15.2848C16.4518 14.8208 17.05 14.5416 17.6866 14.5042L17.8333 14.5L21.9999 14.5ZM26.7558 19.0533L29.1124 21.4108C29.2686 21.5671 29.3564 21.779 29.3564 22C29.3564 22.221 29.2686 22.4329 29.1124 22.5892L26.7558 24.9467C26.5994 25.1029 26.3873 25.1907 26.1663 25.1906C25.9452 25.1905 25.7333 25.1026 25.577 24.9462C25.4207 24.7899 25.333 24.5778 25.3331 24.3568C25.3332 24.1357 25.421 23.9238 25.5774 23.7675L26.5116 22.8333L21.9999 22.8333C21.7789 22.8333 21.5669 22.7455 21.4107 22.5893C21.2544 22.433 21.1666 22.221 21.1666 22C21.1666 21.779 21.2544 21.567 21.4107 21.4107C21.5669 21.2545 21.7789 21.1667 21.9999 21.1667L26.5116 21.1667L25.5774 20.2325C25.421 20.0762 25.3332 19.8643 25.3331 19.6432C25.333 19.4222 25.4207 19.2101 25.577 19.0538C25.7333 18.8974 25.9452 18.8095 26.1663 18.8094C26.3873 18.8093 26.5994 18.8971 26.7558 19.0533Z" fill="white"/>
</svg>