<svg width="20" height="20" viewBox="0 0 20 20" fill="none" xmlns="http://www.w3.org/2000/svg">
<path fill-rule="evenodd" clip-rule="evenodd" d="M3.75 9.99997C3.75 9.23291 4.37183 8.61108 5.13889 8.61108C5.90595 8.61108 6.52778 9.23291 6.52778 9.99997C6.52778 10.767 5.90595 11.3889 5.13889 11.3889C4.37183 11.3889 3.75 10.767 3.75 9.99997Z" fill="currentColor"/>
<path fill-rule="evenodd" clip-rule="evenodd" d="M8.61133 9.99997C8.61133 9.23291 9.23315 8.61108 10.0002 8.61108C10.7673 8.61108 11.3891 9.23291 11.3891 9.99997C11.3891 10.767 10.7673 11.3889 10.0002 11.3889C9.23315 11.3889 8.61133 10.767 8.61133 9.99997Z" fill="currentColor"/>
<path fill-rule="evenodd" clip-rule="evenodd" d="M13.4727 9.99997C13.4727 9.23291 14.0945 8.61108 14.8615 8.61108C15.6286 8.61108 16.2504 9.23291 16.2504 9.99997C16.2504 10.767 15.6286 11.3889 14.8615 11.3889C14.0945 11.3889 13.4727 10.767 13.4727 9.99997Z" fill="currentColor"/>
</svg>
