<svg width="14" height="14" viewBox="0 0 14 14" fill="none" xmlns="http://www.w3.org/2000/svg">
<path d="M6.9992 1.16663C7.45291 1.16665 7.89107 1.33193 8.23178 1.63154L8.32161 1.71613L8.72878 2.12329C8.84052 2.23431 8.98644 2.30439 9.14295 2.32221L9.2217 2.32688H9.80503C10.2817 2.32685 10.7404 2.50921 11.0869 2.83656C11.4335 3.16391 11.6417 3.61144 11.6688 4.08738L11.6717 4.19354V4.77688C11.6717 4.93438 11.7254 5.08779 11.8222 5.21029L11.8747 5.26863L12.2813 5.67579C12.6183 6.01089 12.8148 6.4619 12.8307 6.93688C12.8467 7.41186 12.6808 7.87503 12.367 8.23196L12.2824 8.32179L11.8753 8.72896C11.7643 8.8407 11.6942 8.98662 11.6764 9.14313L11.6717 9.22188V9.80521C11.6717 10.2819 11.4894 10.7406 11.162 11.0871C10.8347 11.4337 10.3871 11.6418 9.9112 11.669L9.80503 11.6719H9.2217C9.06442 11.6719 8.91174 11.7249 8.78828 11.8224L8.72995 11.8749L8.32278 12.2815C7.98769 12.6185 7.53667 12.815 7.06169 12.8309C6.58671 12.8468 6.12354 12.681 5.76661 12.3672L5.67678 12.2826L5.26961 11.8755C5.15787 11.7644 5.01195 11.6944 4.85545 11.6765L4.7767 11.6719H4.19336C3.71665 11.6719 3.258 11.4895 2.91145 11.1622C2.5649 10.8348 2.35673 10.3873 2.32961 9.91138L2.3267 9.80521V9.22188C2.32665 9.0646 2.27363 8.91192 2.1762 8.78846L2.1237 8.73013L1.71711 8.32296C1.38011 7.98787 1.18361 7.53685 1.16768 7.06187C1.15174 6.58689 1.31758 6.12372 1.63136 5.76679L1.71595 5.67696L2.12311 5.26979C2.23413 5.15805 2.30421 5.01213 2.32203 4.85563L2.3267 4.77688V4.19354L2.32961 4.08738C2.35566 3.62972 2.5492 3.19765 2.87333 2.87351C3.19747 2.54937 3.62954 2.35584 4.0872 2.32979L4.19336 2.32688H4.7767C4.93397 2.32682 5.08665 2.27381 5.21011 2.17638L5.26845 2.12388L5.67561 1.71729C5.84906 1.54281 6.05529 1.40434 6.28244 1.30983C6.50958 1.21533 6.75317 1.16666 6.9992 1.16663ZM9.15578 5.41446C9.04639 5.3051 8.89804 5.24367 8.74336 5.24367C8.58868 5.24367 8.44034 5.3051 8.33095 5.41446L6.41003 7.33479L5.65578 6.58113L5.60095 6.53271C5.4837 6.44205 5.33634 6.39942 5.18881 6.41348C5.04127 6.42753 4.90461 6.49722 4.80659 6.60838C4.70857 6.71954 4.65654 6.86385 4.66106 7.01199C4.66559 7.16012 4.72633 7.30098 4.83095 7.40596L5.99761 8.57263L6.05245 8.62104C6.16468 8.70811 6.30483 8.75122 6.44659 8.74231C6.58836 8.7334 6.722 8.67306 6.82245 8.57263L9.15578 6.23929L9.2042 6.18446C9.29126 6.07222 9.33438 5.93208 9.32547 5.79031C9.31655 5.64855 9.25622 5.51491 9.15578 5.41446Z" fill="#056FFA"/>
<path d="M5.24341 6.99357L6.41007 8.16024L8.74341 5.8269" stroke="white" stroke-width="1.16667" stroke-linecap="round" stroke-linejoin="round"/>
</svg>
