<svg width="20" height="20" viewBox="0 0 20 20" fill="none" xmlns="http://www.w3.org/2000/svg">
<g clip-path="url(#clip0_8030_10195)">
<path d="M6.66699 10.8333L6.66699 4.58329C6.66699 4.25177 6.79869 3.93383 7.03311 3.69941C7.26753 3.46499 7.58547 3.33329 7.91699 3.33329C8.24851 3.33329 8.56646 3.46499 8.80088 3.69941C9.0353 3.93383 9.16699 4.25177 9.16699 4.58329M9.16699 4.58329L9.16699 9.99996M9.16699 4.58329L9.16699 2.91663C9.16699 2.75247 9.19932 2.58993 9.26214 2.43827C9.32496 2.28661 9.41704 2.14882 9.53311 2.03274C9.64918 1.91667 9.78698 1.82459 9.93864 1.76178C10.0903 1.69896 10.2528 1.66663 10.417 1.66663C10.5811 1.66663 10.7437 1.69896 10.8953 1.76178C11.047 1.82459 11.1848 1.91667 11.3009 2.03274C11.4169 2.14882 11.509 2.28661 11.5718 2.43827C11.6347 2.58993 11.667 2.75247 11.667 2.91663L11.667 9.99996M11.667 4.58329C11.667 4.25177 11.7987 3.93383 12.0331 3.69941C12.2675 3.46499 12.5855 3.33329 12.917 3.33329C13.2485 3.33329 13.5665 3.46499 13.8009 3.69941C14.0353 3.93383 14.167 4.25177 14.167 4.58329L14.167 9.99996" stroke="currentColor" stroke-width="1.66667" stroke-linecap="round" stroke-linejoin="round"/>
<path d="M14.1668 6.25C14.1668 5.91848 14.2985 5.60054 14.5329 5.36612C14.7674 5.1317 15.0853 5 15.4168 5C15.7483 5 16.0663 5.1317 16.3007 5.36612C16.5351 5.60054 16.6668 5.91848 16.6668 6.25L16.6668 13.3333C16.6668 14.6594 16.14 15.9312 15.2024 16.8689C14.2647 17.8065 12.9929 18.3333 11.6668 18.3333L10.0002 18.3333L10.1735 18.3333C9.34543 18.3335 8.53031 18.128 7.80131 17.7352C7.0723 17.3425 6.45225 16.7749 5.99682 16.0833L5.83349 15.8333C5.57349 15.4344 4.66071 13.8433 3.09515 11.06C2.93553 10.7763 2.89289 10.4415 2.9763 10.1268C3.05972 9.81212 3.26261 9.5424 3.54182 9.375C3.83935 9.19698 4.18774 9.12327 4.53187 9.16554C4.876 9.2078 5.19621 9.36362 5.44182 9.60833L6.66682 10.8333" stroke="currentColor" stroke-width="1.66667" stroke-linecap="round" stroke-linejoin="round"/>
</g>
<defs>
<clipPath id="clip0_8030_10195">
<rect width="20" height="20" fill="white"/>
</clipPath>
</defs>
</svg>
