<svg width="20" height="20" viewBox="0 0 20 20" fill="none" xmlns="http://www.w3.org/2000/svg">
<path fill-rule="evenodd" clip-rule="evenodd" d="M7.5 4.16667C7.27899 4.16667 7.06702 4.25446 6.91074 4.41074C6.75446 4.56702 6.66667 4.77899 6.66667 5V15.1948L9.57125 13.4521C9.83516 13.2937 10.1648 13.2937 10.4287 13.4521L13.3333 15.1948V5C13.3333 4.77899 13.2455 4.56702 13.0893 4.41074C12.933 4.25446 12.721 4.16667 12.5 4.16667H7.5ZM5.73223 3.23223C6.20107 2.76339 6.83696 2.5 7.5 2.5H12.5C13.163 2.5 13.7989 2.76339 14.2678 3.23223C14.7366 3.70107 15 4.33696 15 5V16.6667C15 16.9669 14.8385 17.2439 14.5772 17.3918C14.316 17.5398 13.9954 17.5357 13.7379 17.3812L10 15.1385L6.26208 17.3812C6.00464 17.5357 5.68401 17.5398 5.42275 17.3918C5.16149 17.2439 5 16.9669 5 16.6667V5C5 4.33696 5.26339 3.70107 5.73223 3.23223Z" fill="currentColor"/>
</svg>
