<svg width="240" height="240" viewBox="0 0 240 240" fill="none" xmlns="http://www.w3.org/2000/svg">
<g clip-path="url(#clip0_13391_5816)">
<g clip-path="url(#clip1_13391_5816)">
<rect width="240" height="240" fill="url(#paint0_linear_13391_5816)"/>
<rect width="240" height="240" fill="url(#paint1_linear_13391_5816)"/>
</g>
<path d="M136.5 98H136.555M70.5 87C70.5 82.6239 72.2384 78.4271 75.3327 75.3327C78.4271 72.2384 82.6239 70.5 87 70.5H153C157.376 70.5 161.573 72.2384 164.667 75.3327C167.762 78.4271 169.5 82.6239 169.5 87V153C169.5 157.376 167.762 161.573 164.667 164.667C161.573 167.762 157.376 169.5 153 169.5H87C82.6239 169.5 78.4271 167.762 75.3327 164.667C72.2384 161.573 70.5 157.376 70.5 153V87Z" stroke="white" stroke-width="11" stroke-linecap="round" stroke-linejoin="round"/>
<path d="M70.5 142L98 114.5C103.104 109.589 109.396 109.589 114.5 114.5L142 142" stroke="white" stroke-width="11" stroke-linecap="round" stroke-linejoin="round"/>
<path d="M131 131L136.5 125.5C141.604 120.589 147.896 120.589 153 125.5L169.5 142" stroke="white" stroke-width="11" stroke-linecap="round" stroke-linejoin="round"/>
</g>
<defs>
<linearGradient id="paint0_linear_13391_5816" x1="33.75" y1="30" x2="225" y2="251.25" gradientUnits="userSpaceOnUse">
<stop stop-color="#5E6673"/>
<stop offset="1" stop-color="#474D57"/>
</linearGradient>
<linearGradient id="paint1_linear_13391_5816" x1="101.5" y1="102.5" x2="240" y2="240" gradientUnits="userSpaceOnUse">
<stop stop-color="#5E6673"/>
<stop offset="1" stop-color="#474D57"/>
</linearGradient>
<clipPath id="clip0_13391_5816">
<rect width="240" height="240" fill="white"/>
</clipPath>
<clipPath id="clip1_13391_5816">
<rect width="240" height="240" fill="white"/>
</clipPath>
</defs>
</svg>
