<svg width="240" height="240" viewBox="0 0 240 240" fill="none" xmlns="http://www.w3.org/2000/svg">
<g clip-path="url(#clip0_13391_5830)">
<g clip-path="url(#clip1_13391_5830)">
<rect width="240" height="240" fill="url(#paint0_linear_13391_5830)"/>
</g>
<path d="M172.701 114.516L141.391 80.9607C140.423 79.911 139.156 79.1868 137.763 78.8872C136.392 78.602 134.965 78.7639 133.692 79.3492C132.382 79.9563 131.283 80.9427 130.536 82.1817C129.768 83.4467 129.352 84.9317 129.352 86.4442V103.329C115.215 104.523 101.691 110.067 90.3487 119.318C79.006 128.569 70.3154 141.142 65.2962 155.563C65.198 155.865 65.1885 156.19 65.2688 156.498C65.3447 156.802 65.511 157.077 65.7455 157.284C65.9679 157.483 66.2504 157.601 66.5476 157.619C66.8448 157.637 67.1394 157.554 67.3839 157.383C86.1075 144.953 107.434 137.897 129.352 136.885V153.555C129.352 155.073 129.763 156.553 130.536 157.818C131.308 159.083 132.41 160.067 133.692 160.65C134.98 161.239 136.399 161.398 137.763 161.112C139.133 160.826 140.393 160.106 141.391 159.039L172.701 125.489C173.369 124.768 173.895 123.916 174.257 122.97C174.989 121.058 174.989 118.942 174.257 117.03C173.903 116.1 173.375 115.246 172.701 114.516Z" stroke="white" stroke-width="11"/>
</g>
<defs>
<linearGradient id="paint0_linear_13391_5830" x1="101.5" y1="102.5" x2="240" y2="240" gradientUnits="userSpaceOnUse">
<stop stop-color="#5E6673"/>
<stop offset="1" stop-color="#474D57"/>
</linearGradient>
<clipPath id="clip0_13391_5830">
<rect width="240" height="240" fill="white"/>
</clipPath>
<clipPath id="clip1_13391_5830">
<rect width="240" height="240" fill="white"/>
</clipPath>
</defs>
</svg>
