<svg width="240" height="240" viewBox="0 0 240 240" fill="none" xmlns="http://www.w3.org/2000/svg">
<g clip-path="url(#clip0_13391_5844)">
<rect width="240" height="240" fill="url(#paint0_linear_13391_5844)"/>
<rect width="240" height="240" fill="url(#paint1_linear_13391_5844)"/>
<g clip-path="url(#clip1_13391_5844)">
<rect width="240" height="240" fill="url(#paint2_linear_13391_5844)"/>
</g>
<path d="M175 175L138.333 138.333M65 107.778C65 113.395 66.1065 118.958 68.2563 124.148C70.406 129.338 73.557 134.054 77.5293 138.026C81.5016 141.999 86.2174 145.15 91.4074 147.299C96.5975 149.449 102.16 150.556 107.778 150.556C113.395 150.556 118.958 149.449 124.148 147.299C129.338 145.15 134.054 141.999 138.026 138.026C141.999 134.054 145.15 129.338 147.299 124.148C149.449 118.958 150.556 113.395 150.556 107.778C150.556 102.16 149.449 96.5975 147.299 91.4074C145.15 86.2174 141.999 81.5016 138.026 77.5293C134.054 73.557 129.338 70.406 124.148 68.2563C118.958 66.1065 113.395 65 107.778 65C102.16 65 96.5975 66.1065 91.4074 68.2563C86.2174 70.406 81.5016 73.557 77.5293 77.5293C73.557 81.5016 70.406 86.2174 68.2563 91.4074C66.1065 96.5975 65 102.16 65 107.778Z" stroke="white" stroke-width="11" stroke-linecap="round" stroke-linejoin="round"/>
<path fill-rule="evenodd" clip-rule="evenodd" d="M100.864 93.5596C101.37 92.2204 102.276 91.0662 103.462 90.2514C104.647 89.4366 107.497 89 107.497 89C107.497 89 110.347 89.4366 111.533 90.2514C112.718 91.0662 113.624 92.2204 114.13 93.5596L123.692 118.848C123.901 119.353 124.006 119.895 124 120.441C123.994 120.988 123.877 121.527 123.656 122.028C123.436 122.528 123.116 122.98 122.716 123.356C122.317 123.732 121.845 124.024 121.329 124.216C120.813 124.407 120.263 124.494 119.713 124.471C119.163 124.449 118.622 124.316 118.124 124.083C117.626 123.849 117.181 123.518 116.814 123.11C116.448 122.703 116.167 122.226 115.99 121.709L113.911 116.199H101.095L99.0101 121.709C98.8327 122.226 98.5524 122.703 98.1857 123.11C97.819 123.518 97.3735 123.849 96.8756 124.083C96.3776 124.316 95.8374 124.449 95.287 124.471C94.7365 124.494 94.187 124.407 93.6711 124.216C93.1552 124.024 92.6833 123.732 92.2835 123.356C91.8837 122.98 91.5641 122.528 91.3437 122.028C91.1233 121.527 91.0065 120.988 91.0003 120.441C90.994 119.895 91.0985 119.353 91.3075 118.848L100.864 93.5596ZM104.184 108.04H110.822L107.503 99.2602L104.184 108.04Z" fill="white"/>
</g>
<defs>
<linearGradient id="paint0_linear_13391_5844" x1="101.5" y1="102.5" x2="240" y2="240" gradientUnits="userSpaceOnUse">
<stop stop-color="#5E6673"/>
<stop offset="1" stop-color="#474D57"/>
</linearGradient>
<linearGradient id="paint1_linear_13391_5844" x1="101.5" y1="102.5" x2="240" y2="240" gradientUnits="userSpaceOnUse">
<stop stop-color="#5E6673"/>
<stop offset="1" stop-color="#474D57"/>
</linearGradient>
<linearGradient id="paint2_linear_13391_5844" x1="33.75" y1="30" x2="225" y2="251.25" gradientUnits="userSpaceOnUse">
<stop stop-color="#5E6673"/>
<stop offset="1" stop-color="#474D57"/>
</linearGradient>
<clipPath id="clip0_13391_5844">
<rect width="240" height="240" fill="white"/>
</clipPath>
<clipPath id="clip1_13391_5844">
<rect width="240" height="240" fill="white"/>
</clipPath>
</defs>
</svg>
