<svg width="32" height="32" viewBox="0 0 32 32" fill="none" xmlns="http://www.w3.org/2000/svg">
<path d="M10.9904 9.78656L2.48369 11.0199L2.33302 11.0506C2.10494 11.1111 1.89701 11.2311 1.73048 11.3983C1.56394 11.5655 1.44476 11.7739 1.3851 12.0022C1.32545 12.2305 1.32746 12.4706 1.39092 12.6979C1.45439 12.9251 1.57704 13.1315 1.74635 13.2959L7.90902 19.2946L6.45569 27.7679L6.43835 27.9146C6.42439 28.1505 6.47338 28.3858 6.58029 28.5966C6.6872 28.8073 6.8482 28.9859 7.0468 29.1139C7.2454 29.242 7.47447 29.315 7.71055 29.3254C7.94663 29.3358 8.18124 29.2833 8.39035 29.1732L15.9984 25.1732L23.589 29.1732L23.7224 29.2346C23.9424 29.3213 24.1816 29.3478 24.4154 29.3116C24.6491 29.2753 24.869 29.1775 25.0525 29.0283C25.236 28.879 25.3764 28.6836 25.4595 28.4621C25.5425 28.2406 25.5651 28.001 25.525 27.7679L24.0704 19.2946L30.2357 13.2946L30.3397 13.1812C30.4882 12.9983 30.5857 12.7792 30.622 12.5463C30.6583 12.3134 30.6322 12.0751 30.5465 11.8555C30.4607 11.636 30.3183 11.4431 30.1337 11.2966C29.9491 11.15 29.7289 11.055 29.4957 11.0212L20.989 9.78656L17.1864 2.0799C17.0763 1.85661 16.906 1.66858 16.6946 1.5371C16.4832 1.40562 16.2393 1.33594 15.9904 1.33594C15.7414 1.33594 15.4975 1.40562 15.2861 1.5371C15.0747 1.66858 14.9044 1.85661 14.7944 2.0799L10.9904 9.78656Z" fill="currentColor"/>
</svg>
