<svg width="20" height="20" viewBox="0 0 20 20" fill="none" xmlns="http://www.w3.org/2000/svg">
<path d="M14.5835 6.91667C14.5835 6.54848 14.882 6.25 15.2502 6.25H16.8335C17.2017 6.25 17.5002 6.54848 17.5002 6.91667C17.5002 7.28486 17.2017 7.58333 16.8335 7.58333H15.2502C14.882 7.58333 14.5835 7.28486 14.5835 6.91667ZM14.5835 9.58333C14.5835 9.21514 14.882 8.91667 15.2502 8.91667H16.8335C17.2017 8.91667 17.5002 9.21514 17.5002 9.58333C17.5002 9.95152 17.2017 10.25 16.8335 10.25H15.2502C14.882 10.25 14.5835 9.95152 14.5835 9.58333ZM14.5835 12.25C14.5835 11.8818 14.882 11.5833 15.2502 11.5833H16.8335C17.2017 11.5833 17.5002 11.8818 17.5002 12.25C17.5002 12.6182 17.2017 12.9167 16.8335 12.9167H15.2502C14.882 12.9167 14.5835 12.6182 14.5835 12.25Z" fill="currentColor"/>
<circle cx="9.58333" cy="8.75008" r="2.08333" stroke="currentColor" stroke-width="1.66667"/>
<path d="M6.6665 13.3334C6.79613 12.963 7.63873 11.6667 9.58317 11.6667C11.5276 11.6667 12.4998 13.3334 12.4998 13.3334" stroke="currentColor" stroke-width="1.66667" stroke-linecap="round" stroke-linejoin="round"/>
<path d="M15.8335 14.1211C15.8335 15.075 15.8335 15.3728 15.8335 15.833C15.8335 16.7535 15.0873 17.5 14.1668 17.5H5.00016C4.07969 17.5 3.3335 16.7538 3.3335 15.8333L3.3335 4.16667C3.3335 3.24619 4.07969 2.5 5.00016 2.5L14.1668 2.5C15.0873 2.5 15.8335 3.24619 15.8335 4.16667V5.14706" stroke="currentColor" stroke-width="1.66667"/>
</svg>
