<svg width="14" height="14" viewBox="0 0 14 14" fill="none" xmlns="http://www.w3.org/2000/svg">
<path d="M3.33334 5.33317H7.33334M12.6667 12.6665L8.66667 8.6665M0.666672 5.33317C0.666672 5.94601 0.787379 6.55284 1.0219 7.11903C1.25642 7.68521 1.60017 8.19966 2.03351 8.633C2.46685 9.06634 2.9813 9.41009 3.54748 9.64461C4.11367 9.87913 4.7205 9.99984 5.33334 9.99984C5.94617 9.99984 6.55301 9.87913 7.11919 9.64461C7.68538 9.41009 8.19983 9.06634 8.63317 8.633C9.06651 8.19966 9.41025 7.68521 9.64478 7.11903C9.8793 6.55284 10 5.94601 10 5.33317C10 4.72034 9.8793 4.1135 9.64478 3.54731C9.41025 2.98113 9.06651 2.46668 8.63317 2.03334C8.19983 1.6 7.68538 1.25625 7.11919 1.02173C6.55301 0.787211 5.94617 0.666504 5.33334 0.666504C4.7205 0.666504 4.11367 0.787211 3.54748 1.02173C2.9813 1.25625 2.46685 1.6 2.03351 2.03334C1.60017 2.46668 1.25642 2.98113 1.0219 3.54731C0.787379 4.1135 0.666672 4.72034 0.666672 5.33317Z" stroke="currentColor" stroke-width="1.33333" stroke-linecap="round" stroke-linejoin="round"/>
</svg>
