<svg width="12" height="12" viewBox="0 0 12 12" fill="none" xmlns="http://www.w3.org/2000/svg">
<path d="M0.666672 3.33317V1.99984C0.666672 1.64622 0.807147 1.30708 1.0572 1.05703C1.30724 0.80698 1.64638 0.666504 2.00001 0.666504H3.33334M0.666672 8.6665V9.99984C0.666672 10.3535 0.807147 10.6926 1.0572 10.9426C1.30724 11.1927 1.64638 11.3332 2.00001 11.3332H3.33334M8.66667 0.666504H10C10.3536 0.666504 10.6928 0.80698 10.9428 1.05703C11.1929 1.30708 11.3333 1.64622 11.3333 1.99984V3.33317M8.66667 11.3332H10C10.3536 11.3332 10.6928 11.1927 10.9428 10.9426C11.1929 10.6926 11.3333 10.3535 11.3333 9.99984V8.6665M8.66667 8.6665L7 6.99984M3.33334 5.33317C3.33334 5.59581 3.38507 5.85589 3.48558 6.09854C3.58609 6.34119 3.73341 6.56167 3.91912 6.74738C4.10484 6.9331 4.32532 7.08042 4.56797 7.18093C4.81062 7.28144 5.07069 7.33317 5.33334 7.33317C5.59598 7.33317 5.85605 7.28144 6.0987 7.18093C6.34136 7.08042 6.56183 6.9331 6.74755 6.74738C6.93327 6.56167 7.08059 6.34119 7.1811 6.09854C7.28161 5.85589 7.33334 5.59581 7.33334 5.33317C7.33334 4.80274 7.12262 4.29403 6.74755 3.91896C6.37248 3.54388 5.86377 3.33317 5.33334 3.33317C4.80291 3.33317 4.2942 3.54388 3.91912 3.91896C3.54405 4.29403 3.33334 4.80274 3.33334 5.33317Z" stroke="currentColor" stroke-width="1.33333" stroke-linecap="round" stroke-linejoin="round"/>
</svg>
