<svg width="14" height="14" viewBox="0 0 14 14" fill="none" xmlns="http://www.w3.org/2000/svg">
<path d="M3.33332 5.33317H7.33332M5.33332 3.33317V7.33317M12.6667 12.6665L8.66666 8.6665M0.666656 5.33317C0.666656 5.94601 0.787363 6.55284 1.02189 7.11903C1.25641 7.68521 1.60015 8.19966 2.03349 8.633C2.46683 9.06634 2.98128 9.41009 3.54747 9.64461C4.11365 9.87913 4.72049 9.99984 5.33332 9.99984C5.94616 9.99984 6.55299 9.87913 7.11918 9.64461C7.68537 9.41009 8.19981 9.06634 8.63315 8.633C9.06649 8.19966 9.41024 7.68521 9.64476 7.11903C9.87928 6.55284 9.99999 5.94601 9.99999 5.33317C9.99999 4.72034 9.87928 4.1135 9.64476 3.54731C9.41024 2.98113 9.06649 2.46668 8.63315 2.03334C8.19981 1.6 7.68537 1.25625 7.11918 1.02173C6.55299 0.787211 5.94616 0.666504 5.33332 0.666504C4.72049 0.666504 4.11365 0.787211 3.54747 1.02173C2.98128 1.25625 2.46683 1.6 2.03349 2.03334C1.60015 2.46668 1.25641 2.98113 1.02189 3.54731C0.787363 4.1135 0.666656 4.72034 0.666656 5.33317Z" stroke="currentColor" stroke-width="1.33333" stroke-linecap="round" stroke-linejoin="round"/>
</svg>
