<svg xmlns="http://www.w3.org/2000/svg" width="15" height="15" viewBox="0 0 15 15" fill="none">
  <path d="M5.00016 6.83333C6.47292 6.83333 7.66683 5.63943 7.66683 4.16667C7.66683 2.69391 6.47292 1.5 5.00016 1.5C3.5274 1.5 2.3335 2.69391 2.3335 4.16667C2.3335 5.63943 3.5274 6.83333 5.00016 6.83333Z" stroke="currentColor" stroke-width="1.33" stroke-linecap="round" stroke-linejoin="round"/>
  <path d="M11.6667 4.83362V8.83362M1 13.5003V12.167C1 11.4597 1.28095 10.7814 1.78105 10.2813C2.28115 9.78124 2.95942 9.50028 3.66667 9.50028H6.33333C7.04058 9.50028 7.71885 9.78124 8.21895 10.2813C8.71905 10.7814 9 11.4597 9 12.167V13.5003H1ZM9.66667 6.83362H13.6667H9.66667Z" stroke="currentColor" stroke-width="1.33" stroke-linecap="round" stroke-linejoin="round"/>
</svg>