<svg width="20" height="20" viewBox="0 0 20 20" fill="none" xmlns="http://www.w3.org/2000/svg">
<path d="M5.5 18H15.5C16.3284 18 17 17.3284 17 16.5V6L13 2H5.5C4.67157 2 4 2.67157 4 3.5V16.5C4 17.3284 4.67157 18 5.5 18Z" fill="#B7BDC6"/>
<path d="M8.75009 11.0356L8.75009 11.0403M10.0757 9.71003C10.4272 10.0616 10.6246 10.5384 10.6246 11.0356C10.6246 11.5328 10.4272 12.0096 10.0757 12.3612M11.4017 8.38399C11.7499 8.7322 12.0262 9.14559 12.2146 9.60055C12.4031 10.0555 12.5001 10.5432 12.5001 11.0356C12.5001 11.5281 12.4031 12.0157 12.2146 12.4707C12.0262 12.9256 11.7499 13.339 11.4017 13.6872" stroke="white" stroke-width="0.937466" stroke-linecap="round" stroke-linejoin="round"/>
<path d="M14.5 6L17 6L13 2L13 4.5C13 5.32843 13.6716 6 14.5 6Z" fill="#848E9C"/>
</svg>
