<svg width="44" height="44" viewBox="0 0 44 44" fill="none" xmlns="http://www.w3.org/2000/svg">
<path d="M15.3333 22V17C15.3333 16.558 15.5089 16.1341 15.8215 15.8215C16.134 15.5089 16.558 15.3333 17 15.3333H27C27.442 15.3333 27.866 15.5089 28.1785 15.8215C28.4911 16.1341 28.6667 16.558 28.6667 17V27C28.6667 27.442 28.4911 27.866 28.1785 28.1785C27.866 28.4911 27.442 28.6667 27 28.6667H22M14.5 26.1667C14.5 25.9457 14.5878 25.7337 14.7441 25.5774C14.9004 25.4211 15.1123 25.3333 15.3333 25.3333H17.8333C18.0543 25.3333 18.2663 25.4211 18.4226 25.5774C18.5789 25.7337 18.6667 25.9457 18.6667 26.1667V28.6667C18.6667 28.8877 18.5789 29.0997 18.4226 29.2559C18.2663 29.4122 18.0543 29.5 17.8333 29.5H15.3333C15.1123 29.5 14.9004 29.4122 14.7441 29.2559C14.5878 29.0997 14.5 28.8877 14.5 28.6667V26.1667Z" stroke="#EAECEF" stroke-width="1.66667" stroke-linecap="round" stroke-linejoin="round"/>
<path d="M22.0001 18.6667H25.3334M25.3334 18.6667V22M25.3334 18.6667L21.1667 22.8333" stroke="#EAECEF" stroke-width="1.66667" stroke-linecap="round" stroke-linejoin="round"/>
</svg>
