<svg width="24" height="24" viewBox="0 0 24 24" fill="none" xmlns="http://www.w3.org/2000/svg">
<path d="M10.25 15.507H15.5M19 6.75696V17.257C19 17.7211 18.8156 18.1662 18.4874 18.4944C18.1592 18.8226 17.7141 19.007 17.25 19.007H8.5C8.03587 19.007 7.59075 18.8226 7.26256 18.4944C6.93437 18.1662 6.75 17.7211 6.75 17.257V6.75696C6.75 6.29283 6.93437 5.84771 7.26256 5.51952C7.59075 5.19133 8.03587 5.00696 8.5 5.00696H17.25C17.7141 5.00696 18.1592 5.19133 18.4874 5.51952C18.8156 5.84771 19 6.29283 19 6.75696Z" stroke="#848E9C" stroke-width="1.67" stroke-linecap="round" stroke-linejoin="round"/>
<path d="M5 8.50702H7.625M5 12.007H7.625M5 15.507H7.625M11.125 11.132C11.125 11.5961 11.3094 12.0413 11.6376 12.3695C11.9658 12.6976 12.4109 12.882 12.875 12.882C13.3391 12.882 13.7842 12.6976 14.1124 12.3695C14.4406 12.0413 14.625 11.5961 14.625 11.132C14.625 10.6679 14.4406 10.2228 14.1124 9.89458C13.7842 9.56639 13.3391 9.38202 12.875 9.38202C12.4109 9.38202 11.9658 9.56639 11.6376 9.89458C11.3094 10.2228 11.125 10.6679 11.125 11.132Z" stroke="#848E9C" stroke-width="1.67" stroke-linecap="round" stroke-linejoin="round"/>
</svg>
