<svg width="24" height="24" viewBox="0 0 24 24" fill="none" xmlns="http://www.w3.org/2000/svg">
<path d="M19.5 19.5069L14.5 14.5069M4.5 10.3402C4.5 11.1063 4.65088 11.8648 4.94404 12.5726C5.23719 13.2803 5.66687 13.9233 6.20854 14.465C6.75022 15.0067 7.39328 15.4364 8.10101 15.7295C8.80875 16.0227 9.56729 16.1736 10.3333 16.1736C11.0994 16.1736 11.8579 16.0227 12.5657 15.7295C13.2734 15.4364 13.9164 15.0067 14.4581 14.465C14.9998 13.9233 15.4295 13.2803 15.7226 12.5726C16.0158 11.8648 16.1667 11.1063 16.1667 10.3402C16.1667 9.57419 16.0158 8.81564 15.7226 8.10791C15.4295 7.40018 14.9998 6.75712 14.4581 6.21544C13.9164 5.67377 13.2734 5.24409 12.5657 4.95093C11.8579 4.65778 11.0994 4.5069 10.3333 4.5069C9.56729 4.5069 8.80875 4.65778 8.10101 4.95093C7.39328 5.24409 6.75022 5.67377 6.20854 6.21544C5.66687 6.75712 5.23719 7.40018 4.94404 8.10791C4.65088 8.81564 4.5 9.57419 4.5 10.3402Z" stroke="#848E9C" stroke-width="1.66667" stroke-linecap="round" stroke-linejoin="round"/>
</svg>
