<svg width="21" height="20" viewBox="0 0 21 20" fill="none" xmlns="http://www.w3.org/2000/svg">
<path d="M6.08325 8.05584C6.08325 7.46639 6.31741 6.90109 6.73421 6.48429C7.15101 6.06749 7.71631 5.83334 8.30575 5.83334H15.5274C15.8193 5.83334 16.1083 5.89082 16.3779 6.00251C16.6476 6.1142 16.8926 6.27791 17.099 6.48429C17.3053 6.69067 17.4691 6.93568 17.5807 7.20532C17.6924 7.47497 17.7499 7.76397 17.7499 8.05584V15.2775C17.7499 15.5694 17.6924 15.8584 17.5807 16.128C17.4691 16.3977 17.3053 16.6427 17.099 16.849C16.8926 17.0554 16.6476 17.2191 16.3779 17.3308C16.1083 17.4425 15.8193 17.5 15.5274 17.5H8.30575C8.01389 17.5 7.72488 17.4425 7.45524 17.3308C7.18559 17.2191 6.94059 17.0554 6.73421 16.849C6.52783 16.6427 6.36412 16.3977 6.25243 16.128C6.14074 15.8584 6.08325 15.5694 6.08325 15.2775V8.05584Z" stroke="#474D57" stroke-width="1.66667" stroke-linecap="round" stroke-linejoin="round"/>
<path d="M3.59333 13.9475C3.3375 13.8021 3.12471 13.5916 2.97658 13.3374C2.82846 13.0832 2.75028 12.7942 2.75 12.5V4.16667C2.75 3.25 3.5 2.5 4.41667 2.5H12.75C13.375 2.5 13.715 2.82083 14 3.33333" stroke="#474D57" stroke-width="1.66667" stroke-linecap="round" stroke-linejoin="round"/>
</svg>
