<svg width="12" height="12" viewBox="0 0 12 12" fill="none" xmlns="http://www.w3.org/2000/svg">
<path d="M6 10.5C7.19347 10.5 8.33807 10.0259 9.18198 9.18198C10.0259 8.33807 10.5 7.19347 10.5 6C10.5 4.80653 10.0259 3.66193 9.18198 2.81802C8.33807 1.97411 7.19347 1.5 6 1.5C4.80653 1.5 3.66193 1.97411 2.81802 2.81802C1.97411 3.66193 1.5 4.80653 1.5 6C1.5 7.19347 1.97411 8.33807 2.81802 9.18198C3.66193 10.0259 4.80653 10.5 6 10.5Z" stroke="#B7BDC6" stroke-linecap="round" stroke-linejoin="round"/>
<path d="M4 4.5C4 4.36739 4.05268 4.24021 4.14645 4.14645C4.24021 4.05268 4.36739 4 4.5 4H7.5C7.63261 4 7.75979 4.05268 7.85355 4.14645C7.94732 4.24021 8 4.36739 8 4.5V7.5C8 7.63261 7.94732 7.75979 7.85355 7.85355C7.75979 7.94732 7.63261 8 7.5 8H4.5C4.36739 8 4.24021 7.94732 4.14645 7.85355C4.05268 7.75979 4 7.63261 4 7.5V4.5Z" stroke="#B7BDC6" stroke-linecap="round" stroke-linejoin="round"/>
</svg>
