<svg width="12" height="12" viewBox="0 0 12 12" fill="none" xmlns="http://www.w3.org/2000/svg">
<path d="M9.96604 6.52034C9.87163 7.24032 9.583 7.92101 9.13112 8.48942C8.67925 9.05783 8.08117 9.49252 7.40102 9.74685C6.72088 10.0012 5.98433 10.0656 5.27037 9.93313C4.55641 9.80067 3.89197 9.47637 3.34832 8.99499C2.80466 8.51362 2.4023 7.89334 2.18438 7.20066C1.96646 6.50799 1.9412 5.76907 2.11132 5.06313C2.28144 4.3572 2.64051 3.71089 3.15003 3.19352C3.65955 2.67615 4.30029 2.30723 5.00354 2.12634C6.95304 1.62634 8.97104 2.62984 9.71604 4.49984" stroke="#B7BDC6" stroke-linecap="round" stroke-linejoin="round"/>
<path d="M10 2V4.5H7.5" stroke="#B7BDC6" stroke-linecap="round" stroke-linejoin="round"/>
</svg>
