<svg width="16" height="16" viewBox="0 0 16 16" fill="none" xmlns="http://www.w3.org/2000/svg">
<path d="M9.66732 7L8.00065 8.66667M11.334 5.33333L12.0007 4.66667M9.33398 2H6.66732M3.33398 8.66667C3.33398 9.2795 3.45469 9.88634 3.68921 10.4525C3.92374 11.0187 4.26748 11.5332 4.70082 11.9665C5.13416 12.3998 5.64861 12.7436 6.21479 12.9781C6.78098 13.2126 7.38782 13.3333 8.00065 13.3333C8.61349 13.3333 9.22032 13.2126 9.78651 12.9781C10.3527 12.7436 10.8671 12.3998 11.3005 11.9665C11.7338 11.5332 12.0776 11.0187 12.3121 10.4525C12.5466 9.88634 12.6673 9.2795 12.6673 8.66667C12.6673 7.42899 12.1757 6.24201 11.3005 5.36684C10.4253 4.49167 9.23833 4 8.00065 4C6.76297 4 5.57599 4.49167 4.70082 5.36684C3.82565 6.24201 3.33398 7.42899 3.33398 8.66667Z" stroke="#B7BDC6" stroke-width="1.33" stroke-linecap="round" stroke-linejoin="round"/>
</svg>
