<svg width="240" height="240" viewBox="0 0 240 240" fill="none" xmlns="http://www.w3.org/2000/svg">
<g clip-path="url(#clip0_670_910)">
<g clip-path="url(#clip1_670_910)">
<rect width="240" height="240" fill="url(#paint0_linear_670_910)"/>
</g>
<g clip-path="url(#clip2_670_910)">
<path fill-rule="evenodd" clip-rule="evenodd" d="M171.288 82.7645C171.203 80.9934 170.432 79.2145 169.065 77.8473C167.657 76.4401 165.814 75.6641 163.992 75.6184L142.645 75.0838L133.899 98.1758L145.931 105.585C148.517 107.177 149.49 110.461 148.189 113.205C141.103 128.155 129.15 140.107 114.2 147.194C111.456 148.494 108.173 147.522 106.581 144.936L99.1711 132.903L76.0791 141.65L76.6138 162.997C76.6594 164.819 77.4355 166.662 78.8426 168.069C80.2098 169.437 81.9887 170.208 83.7599 170.293C107.111 169.407 128.842 160.012 144.925 143.929C161.007 127.847 170.402 106.116 171.288 82.7645ZM183.195 82.9839C182.251 109.346 171.656 134.037 153.344 152.349C135.032 170.661 110.341 181.256 83.9793 182.199C83.8587 182.204 83.738 182.204 83.6173 182.201C78.6585 182.077 73.9311 179.997 70.4232 176.489C66.9154 172.981 64.8349 168.254 64.7107 163.295L64.0703 137.727C64.007 135.198 65.5481 132.906 67.9132 132.01L99.553 120.027C102.223 119.015 105.234 120.042 106.731 122.472L113.798 133.948C122.547 128.808 129.804 121.552 134.943 112.802L123.468 105.736C121.037 104.239 120.011 101.227 121.022 98.5577L133.006 66.9179C133.901 64.5527 136.194 63.0117 138.722 63.075L164.29 63.7154C169.249 63.8395 173.976 65.9201 177.484 69.4279C180.992 72.9358 183.072 77.6632 183.197 82.622C183.2 82.7426 183.199 82.8633 183.195 82.9839Z" fill="white"/>
<path d="M93.2627 67.407C94.4783 65.8693 93.3327 63.6666 91.312 63.6666H75.6413C75.217 63.6635 74.799 63.7697 74.4276 63.9748C74.0561 64.1799 73.7437 64.4772 73.5203 64.838L61.6623 84.5686C60.7267 86.1226 61.9027 88.0616 63.781 88.0616H71.782L64.2453 106.88C63.1557 109.26 66.1003 111.437 68.079 109.715L98.6667 80.7723H82.6857L93.2627 67.407Z" fill="white" stroke="white" stroke-width="2" stroke-linecap="round" stroke-linejoin="round"/>
</g>
</g>
<defs>
<linearGradient id="paint0_linear_670_910" x1="126" y1="268.8" x2="-77.8704" y2="181.175" gradientUnits="userSpaceOnUse">
<stop offset="0.144633" stop-color="#1773EB"/>
<stop offset="1" stop-color="#4DA0FF"/>
</linearGradient>
<clipPath id="clip0_670_910">
<rect width="240" height="240" fill="white"/>
</clipPath>
<clipPath id="clip1_670_910">
<rect width="240" height="240" fill="white"/>
</clipPath>
<clipPath id="clip2_670_910">
<rect width="169.091" height="169.091" fill="white" transform="translate(29.4545 211.545) rotate(-90)"/>
</clipPath>
</defs>
</svg>
