<svg width="1024" height="1024" viewBox="0 0 1024 1024" fill="none" xmlns="http://www.w3.org/2000/svg">
<path d="M439 466.333C439 479.036 449.297 489.333 462 489.333H485C497.703 489.333 508 499.631 508 512.333C508 525.036 497.703 535.333 485 535.333H462C449.297 535.333 439 545.631 439 558.333C439 571.036 449.297 581.333 462 581.333H554C566.703 581.333 577 591.631 577 604.333C577 617.036 566.703 627.333 554 627.333H531C518.297 627.333 508 637.631 508 650.333C508 663.036 518.297 673.333 531 673.333H634.5C647.203 673.333 657.5 683.631 657.5 696.333C657.5 709.036 647.203 719.333 634.5 719.333H611.5C598.797 719.333 588.5 729.631 588.5 742.333C588.5 755.036 598.797 765.333 611.5 765.333H761C773.703 765.333 784 775.631 784 788.333C784 801.036 773.703 811.333 761 811.333H462C296.867 811.333 163 677.466 163 512.333C163 347.2 296.867 213.333 462 213.333H761C773.703 213.333 784 223.631 784 236.333C784 249.036 773.703 259.333 761 259.333H611.5C598.797 259.333 588.5 269.631 588.5 282.333C588.5 295.036 598.797 305.333 611.5 305.333H634.5C647.203 305.333 657.5 315.631 657.5 328.333C657.5 341.036 647.203 351.333 634.5 351.333H531C518.297 351.333 508 361.631 508 374.333C508 387.036 518.297 397.333 531 397.333H554C566.703 397.333 577 407.631 577 420.333C577 433.036 566.703 443.333 554 443.333H462C449.297 443.333 439 453.631 439 466.333Z" fill="#B7BDC6"/>
<path d="M578.15 512.333C578.15 525.036 567.853 535.333 555.15 535.333C542.447 535.333 532.15 525.036 532.15 512.333C532.15 499.631 542.447 489.333 555.15 489.333C567.853 489.333 578.15 499.631 578.15 512.333Z" fill="#B7BDC6"/>
<path d="M830 259.333C842.703 259.333 853 249.036 853 236.333C853 223.631 842.703 213.333 830 213.333C817.297 213.333 807 223.631 807 236.333C807 249.036 817.297 259.333 830 259.333Z" fill="#B7BDC6"/>
<path d="M830 328.333C830 341.036 819.703 351.333 807 351.333C794.297 351.333 784 341.036 784 328.333C784 315.631 794.297 305.333 807 305.333C819.703 305.333 830 315.631 830 328.333Z" fill="#B7BDC6"/>
<path d="M646 420.333C646 433.036 635.703 443.333 623 443.333C610.297 443.333 600 433.036 600 420.333C600 407.631 610.297 397.333 623 397.333C635.703 397.333 646 407.631 646 420.333Z" fill="#B7BDC6"/>
<path d="M703.5 351.333H738C750.703 351.333 761 341.036 761 328.333C761 315.631 750.703 305.333 738 305.333H703.5C690.797 305.333 680.5 315.631 680.5 328.333C680.5 341.036 690.797 351.333 703.5 351.333Z" fill="#B7BDC6"/>
<path d="M853 788.333C853 775.631 842.703 765.333 830 765.333C817.297 765.333 807 775.631 807 788.333C807 801.036 817.297 811.333 830 811.333C842.703 811.333 853 801.036 853 788.333Z" fill="#B7BDC6"/>
<path d="M807 673.333C819.703 673.333 830 683.631 830 696.333C830 709.036 819.703 719.333 807 719.333C794.297 719.333 784 709.036 784 696.333C784 683.631 794.297 673.333 807 673.333Z" fill="#B7BDC6"/>
<path d="M623 581.333C635.703 581.333 646 591.631 646 604.333C646 617.036 635.703 627.333 623 627.333C610.297 627.333 600 617.036 600 604.333C600 591.631 610.297 581.333 623 581.333Z" fill="#B7BDC6"/>
<path d="M738 673.333H703.5C690.797 673.333 680.5 683.631 680.5 696.333C680.5 709.036 690.797 719.333 703.5 719.333H738C750.703 719.333 761 709.036 761 696.333C761 683.631 750.703 673.333 738 673.333Z" fill="#B7BDC6"/>
</svg>
