<svg width="16" height="16" viewBox="0 0 16 16" fill="none" xmlns="http://www.w3.org/2000/svg">
<path fill-rule="evenodd" clip-rule="evenodd" d="M3.97554 3.97572C4.20986 3.74141 4.58975 3.74141 4.82407 3.97572L7.9998 7.15146L11.1755 3.97572C11.4099 3.74141 11.7898 3.74141 12.0241 3.97572C12.2584 4.21004 12.2584 4.58994 12.0241 4.82425L8.84833 7.99999L12.0241 11.1757C12.2584 11.41 12.2584 11.7899 12.0241 12.0243C11.7898 12.2586 11.4099 12.2586 11.1755 12.0243L7.9998 8.84852L4.82407 12.0243C4.58975 12.2586 4.20986 12.2586 3.97554 12.0243C3.74123 11.7899 3.74123 11.41 3.97554 11.1757L7.15128 7.99999L3.97554 4.82425C3.74123 4.58994 3.74123 4.21004 3.97554 3.97572Z" fill="#474D57"/>
</svg>
