<svg width="12" height="12" viewBox="0 0 12 12" fill="none" xmlns="http://www.w3.org/2000/svg">
  <path d="M1.33319 3.0835V2.50016C1.33319 2.19074 1.45611 1.894 1.6749 1.6752C1.89369 1.45641 2.19044 1.3335 2.49986 1.3335H3.66652M1.33319 8.91683V9.50016C1.33319 9.80958 1.45611 10.1063 1.6749 10.3251C1.89369 10.5439 2.19044 10.6668 2.49986 10.6668H3.66652M8.33319 1.3335H9.49986C9.80928 1.3335 10.106 1.45641 10.3248 1.6752C10.5436 1.894 10.6665 2.19074 10.6665 2.50016V3.0835M8.33319 10.6668H9.49986C9.80928 10.6668 10.106 10.5439 10.3248 10.3251C10.5436 10.1063 10.6665 9.80958 10.6665 9.50016V8.91683M1.91652 6.00016H10.0832" stroke="#1E2329" stroke-width="1.16667" stroke-linecap="round" stroke-linejoin="round"/>
</svg>
