<svg viewBox="0 0 32 32" fill="none" xmlns="http://www.w3.org/2000/svg"><path data-follow-stroke="#474D57" d="M13.333 21.334h8M26.667 8v16A2.667 2.667 0 0 1 24 26.667H10.667A2.667 2.667 0 0 1 8 24V8a2.667 2.667 0 0 1 2.667-2.667H24A2.667 2.667 0 0 1 26.667 8Z" stroke="#474D57" stroke-width="2" stroke-linecap="round" stroke-linejoin="round"/><path data-follow-stroke="#474D57" d="M5.334 10.667h4m-4 5.333h4m-4 5.334h4m5.333-6.667a2.667 2.667 0 1 0 5.334 0 2.667 2.667 0 0 0-5.334 0Z" stroke="#474D57" stroke-width="2" stroke-linecap="round" stroke-linejoin="round"/></svg>