<svg width="21" height="20" viewBox="0 0 21 20" fill="none" xmlns="http://www.w3.org/2000/svg">
<path d="M10.75 7.08341V12.9167M8.25 8.33341L13.25 11.6667M8.25 11.6667L13.25 8.33341M3.25 4.16674C3.25 3.72472 3.42559 3.30079 3.73816 2.98823C4.05072 2.67567 4.47464 2.50008 4.91667 2.50008H16.5833C17.0254 2.50008 17.4493 2.67567 17.7618 2.98823C18.0744 3.30079 18.25 3.72472 18.25 4.16674V15.8334C18.25 16.2754 18.0744 16.6994 17.7618 17.0119C17.4493 17.3245 17.0254 17.5001 16.5833 17.5001H4.91667C4.47464 17.5001 4.05072 17.3245 3.73816 17.0119C3.42559 16.6994 3.25 16.2754 3.25 15.8334V4.16674Z" stroke="#B7BDC6" stroke-width="1.66667" stroke-linecap="round" stroke-linejoin="round"/>
</svg>
