<svg width="32" height="32" viewBox="0 0 32 32" fill="none" xmlns="http://www.w3.org/2000/svg">
<path d="M7.99998 28.8H24C25.3255 28.8 26.4 27.7255 26.4 26.4V9.6L20 3.2H7.99998C6.67449 3.2 5.59998 4.27452 5.59998 5.6V26.4C5.59998 27.7255 6.67449 28.8 7.99998 28.8Z" fill="#B7BDC6"/>
<path fill-rule="evenodd" clip-rule="evenodd" d="M16 12.75C15.4477 12.75 15 13.1977 15 13.75V16.25C15 16.8023 15.4477 17.25 16 17.25C16.5523 17.25 17 16.8023 17 16.25V13.75C17 13.1977 16.5523 12.75 16 12.75ZM14 13.75C14 12.6454 14.8954 11.75 16 11.75C17.1046 11.75 18 12.6454 18 13.75V16.25C18 17.3546 17.1046 18.25 16 18.25C14.8954 18.25 14 17.3546 14 16.25V13.75Z" fill="white"/>
<path fill-rule="evenodd" clip-rule="evenodd" d="M12.5 15.75C12.7761 15.75 13 15.9739 13 16.25C13 17.0456 13.3161 17.8087 13.8787 18.3713C14.4413 18.9339 15.2044 19.25 16 19.25C16.7956 19.25 17.5587 18.9339 18.1213 18.3713C18.6839 17.8087 19 17.0456 19 16.25C19 15.9739 19.2239 15.75 19.5 15.75C19.7761 15.75 20 15.9739 20 16.25C20 17.3109 19.5786 18.3283 18.8284 19.0784C18.1971 19.7097 17.3765 20.1082 16.5 20.2186V21.25H18C18.2761 21.25 18.5 21.4739 18.5 21.75C18.5 22.0261 18.2761 22.25 18 22.25H14C13.7239 22.25 13.5 22.0261 13.5 21.75C13.5 21.4739 13.7239 21.25 14 21.25H15.5V20.2186C14.6235 20.1082 13.8029 19.7097 13.1716 19.0784C12.4214 18.3283 12 17.3109 12 16.25C12 15.9739 12.2239 15.75 12.5 15.75Z" fill="white"/>
<path d="M22.2 9.6L26.2 9.6L19.8 3.2L19.8 7.2C19.8 8.52548 20.8745 9.6 22.2 9.6Z" fill="#848E9C"/>
</svg>
